<svg width="21" height="21" viewBox="0 0 21 21" fill="none" xmlns="http://www.w3.org/2000/svg">
<path d="M18.1525 10.5001C18.1525 10.8452 18.4323 11.1251 18.7775 11.1251C19.1226 11.1251 19.4025 10.8452 19.4025 10.5001H18.1525ZM18.6521 6.12509L18.1054 6.42807L18.6521 6.12509ZM18.1525 7.16411V10.5001H19.4025V7.16411H18.1525ZM18.1687 4.93811L14.6643 2.74783L14.0018 3.80783L17.5062 5.99811L18.1687 4.93811ZM19.4025 7.16411C19.4025 6.90492 19.4031 6.66699 19.3839 6.46667C19.3635 6.25309 19.3175 6.03631 19.1987 5.82211L18.1054 6.42807C18.1121 6.44004 18.1287 6.47183 18.1396 6.58574C18.1518 6.71291 18.1525 6.8814 18.1525 7.16411H19.4025ZM17.5062 5.99811C17.7459 6.14794 17.8885 6.2378 17.9899 6.31552C18.0807 6.38514 18.0988 6.4161 18.1054 6.42807L19.1987 5.82211C19.08 5.60791 18.9206 5.45398 18.7503 5.32345C18.5906 5.20102 18.3885 5.07548 18.1687 4.93811L17.5062 5.99811Z" fill="white"/>
<path d="M9.88889 11.6111V19.5979C9.88889 19.9968 9.88889 20.1962 9.76008 20.2676C9.63127 20.339 9.46215 20.2333 9.12389 20.0219L1.94 15.5319C1.48048 15.2447 1.25072 15.1011 1.12536 14.875C1 14.6488 1 14.3778 1 13.8359V6.05556M9.88889 11.6111L1 6.05556M9.88889 11.6111L16.0642 7.75155C17.282 6.99039 17.891 6.6098 17.891 6.05556C17.891 5.50131 17.282 5.12073 16.0642 4.35956L10.9489 1.1625C10.4334 0.840331 10.1757 0.679248 9.88889 0.679248C9.60209 0.679248 9.34436 0.840331 8.82889 1.1625L1 6.05556" stroke="white" stroke-width="1.25" stroke-linejoin="round"/>
<ellipse cx="16.0004" cy="15.4999" rx="2.77778" ry="2.77778" stroke="white" stroke-width="1.25"/>
<path d="M19.8893 19.3888L18.2227 17.7222" stroke="white" stroke-width="1.25" stroke-linecap="round"/>
<path d="M12.4423 19.6411C12.735 19.4581 12.8239 19.0725 12.641 18.7798C12.4581 18.4871 12.0725 18.3981 11.7798 18.5811L12.4423 19.6411ZM10.9999 19.8055L11.3311 20.3355L10.9999 19.8055ZM8.82878 19.8374L8.49753 20.3674L8.82878 19.8374ZM10.9488 19.8374L10.6175 19.3074L10.9488 19.8374ZM9.88878 20.3207V20.9457V20.3207ZM9.16003 19.3074L5.77559 17.1922L5.11309 18.2522L8.49753 20.3674L9.16003 19.3074ZM10.6686 19.2755L10.6175 19.3074L11.28 20.3674L11.3311 20.3355L10.6686 19.2755ZM11.7798 18.5811L11.2242 18.9283L11.8867 19.9883L12.4423 19.6411L11.7798 18.5811ZM11.2242 18.9283L10.6686 19.2755L11.3311 20.3355L11.8867 19.9883L11.2242 18.9283ZM8.49753 20.3674C8.74429 20.5217 8.96932 20.6632 9.16999 20.7614C9.38378 20.8659 9.61664 20.9457 9.88878 20.9457V19.6957C9.87413 19.6957 9.83472 19.695 9.71908 19.6384C9.59032 19.5755 9.42874 19.4754 9.16003 19.3074L8.49753 20.3674ZM10.6175 19.3074C10.3488 19.4754 10.1872 19.5755 10.0585 19.6384C9.94284 19.695 9.90343 19.6957 9.88878 19.6957V20.9457C10.1609 20.9457 10.3938 20.8659 10.6076 20.7614C10.8082 20.6632 11.0333 20.5217 11.28 20.3674L10.6175 19.3074Z" fill="white"/>
</svg>
