<svg width="24" height="24" viewBox="0 0 24 24" fill="none" xmlns="http://www.w3.org/2000/svg">
<path d="M14.2221 9.77654L10.8884 13.1102M21.2094 2.03252C21.3148 1.99613 21.4283 1.99015 21.537 2.01524C21.6457 2.04034 21.7451 2.0955 21.824 2.17443C21.9028 2.25337 21.9578 2.35288 21.9827 2.4616C22.0077 2.57032 22.0015 2.68387 21.965 2.78925L15.3822 21.602C15.3428 21.7145 15.2705 21.8125 15.1747 21.8834C15.0789 21.9543 14.9641 21.9947 14.845 21.9995C14.7259 22.0043 14.6082 21.9732 14.507 21.9103C14.4058 21.8473 14.3259 21.7554 14.2776 21.6465L10.7006 13.5991C10.641 13.4649 10.5337 13.3576 10.3995 13.298L2.35213 9.71987C2.24356 9.67139 2.15202 9.59148 2.08933 9.49044C2.02665 9.38941 1.9957 9.2719 2.00048 9.15309C2.00527 9.03429 2.04557 8.91965 2.11618 8.82398C2.18678 8.72832 2.28446 8.65602 2.39658 8.61644L21.2094 2.03252Z" stroke="#01209F" stroke-width="1.25" stroke-linecap="round" stroke-linejoin="round"/>
</svg>
